MoBL_ARMS_module2_4_allmuscles_wrist_states		
version=1		
nRows=251		
nColumns=3		
inDegrees=yes		
		
# SIMM Motion File Header:		
name MoBL_ARMS_module2_4_allmuscles_wrist_states		
datacolumns 3		
datarows 251		
otherdata 1		
range 4.893877023 5.318255469		
endheader		
time	deviation	flexion
4.893877023	0.365916325	0.069507627
4.895574537	0.365925726	0.069243304
4.897272051	0.365936485	0.06898757
4.898969565	0.365948297	0.068740458
4.900667079	0.365960811	0.068502075
4.902364592	0.365973689	0.068272592
4.904062106	0.365986648	0.068052214
4.90575962	0.36599948	0.067841152
4.907457134	0.366012063	0.067639584
4.909154648	0.366024352	0.067447633
4.910852161	0.366036343	0.067265352
4.912549675	0.366048037	0.067092721
4.914247189	0.366059421	0.066929653
4.915944703	0.366070447	0.066776026
4.917642216	0.366081033	0.066631716
4.91933973	0.366091076	0.066496619
4.921037244	0.36610047	0.066370676
4.922734758	0.366109132	0.066253887
4.924432272	0.366117014	0.066146303
4.926129785	0.36612412	0.066047997
4.927827299	0.366130514	0.065959034
4.929524813	0.366136306	0.065879438
4.931222327	0.366141634	0.065809175
4.93291984	0.366146646	0.065748137
4.934617354	0.366151489	0.065696146
4.936314868	0.366156315	0.065653003
4.938012382	0.366161342	0.065618557
4.939709896	0.366166987	0.065592824
4.941407409	0.36617399	0.065576121
4.943104923	0.366183391	0.065569086
4.944802437	0.366196336	0.06557257
4.946499951	0.366213826	0.065587439
4.948197465	0.366236575	0.065614429
4.949894978	0.366265048	0.065654057
4.951592492	0.366299769	0.065706538
4.953290006	0.366341573	0.065771747
4.95498752	0.366391512	0.065849244
4.956685033	0.366450524	0.065938404
4.958382547	0.366519215	0.066038539
4.960080061	0.366597816	0.066149036
4.961777575	0.366686265	0.066269484
4.963475089	0.366784301	0.06639974
4.965172602	0.366891783	0.066539855
4.966870116	0.367009076	0.066689896
4.96856763	0.367137151	0.066849762
4.970265144	0.367277165	0.067019015
4.971962657	0.367429882	0.067196802
4.973660171	0.367595426	0.067381907
4.975357685	0.367773406	0.067572915
4.977055199	0.367963175	0.067768416
4.978752713	0.36816401	0.067967132
4.980450226	0.368375301	0.06816797
4.98214774	0.368596701	0.068370003
4.983845254	0.368828105	0.068572414
4.985542768	0.369069354	0.068774391
4.987240282	0.369319936	0.068975045
4.988937795	0.369578891	0.069173415
4.990635309	0.369844817	0.069368517
4.992332823	0.370115954	0.069559405
4.994030337	0.370390351	0.069745258
4.99572785	0.370666146	0.069925449
4.997425364	0.370941779	0.07009959
4.999122878	0.371216075	0.07026752
5.000820392	0.371488188	0.07042929
5.002517906	0.371757508	0.07058513
5.004215419	0.37202354	0.070735403
5.005912933	0.37228573	0.070880542
5.007610447	0.372543414	0.071021012
5.009307961	0.372795878	0.071157301
5.011005474	0.373042424	0.071289913
5.012702988	0.373282413	0.071419359
5.014400502	0.373515316	0.07154616
5.016098016	0.37374078	0.071670862
5.01779553	0.373958644	0.071794043
5.019493043	0.374168907	0.071916295
5.021190557	0.374371642	0.072038172
5.022888071	0.374566937	0.072160164
5.024585585	0.374754862	0.072282676
5.026283099	0.374935456	0.072406023
5.027980612	0.375108738	0.072530439
5.029678126	0.375274746	0.072656101
5.03137564	0.375433605	0.072783182
5.033073154	0.375585555	0.072911875
5.034770667	0.375730923	0.073042386
5.036468181	0.375870066	0.073174912
5.038165695	0.376003328	0.073309613
5.039863209	0.376130999	0.073446592
5.041560723	0.376253278	0.073585874
5.043258236	0.376370274	0.073727395
5.04495575	0.37648206	0.073871043
5.046653264	0.376588739	0.074016699
5.048350778	0.376690479	0.074164266
5.050048291	0.376787519	0.074313698
5.051745805	0.376880185	0.074465015
5.053443319	0.37696887	0.074618302
5.055140833	0.377053968	0.074773677
5.056838347	0.377135822	0.074931253
5.05853586	0.377214695	0.075091119
5.060233374	0.377290746	0.075253308
5.061930888	0.377364011	0.075417783
5.063628402	0.377434433	0.075584434
5.065325916	0.377501941	0.07575313
5.067023429	0.377566518	0.075923766
5.068720943	0.377628235	0.076096292
5.070418457	0.377687293	0.076270746
5.072115971	0.377744055	0.076447287
5.073813484	0.377798997	0.076626175
5.075510998	0.377852592	0.076807693
5.077208512	0.377905209	0.076992079
5.078906026	0.377957104	0.077179485
5.08060354	0.378008344	0.077369924
5.082301053	0.378058758	0.077563243
5.083998567	0.378108021	0.077759158
5.085696081	0.378155972	0.077957372
5.087393595	0.378202879	0.078157655
5.089091109	0.378249484	0.078359844
5.090788622	0.378296877	0.078563768
5.092486136	0.37834633	0.078769176
5.09418365	0.378399063	0.078975669
5.095881164	0.378455901	0.07918266
5.097578677	0.378517078	0.079389401
5.099276191	0.378582311	0.079595057
5.100973705	0.378651121	0.079798791
5.102671219	0.3787231	0.079999811
5.104368733	0.378798082	0.080197401
5.106066246	0.378876245	0.080390951
5.10776376	0.378958105	0.080579953
5.109461274	0.379044281	0.080763961
5.111158788	0.379135065	0.080942597
5.112856301	0.37923018	0.081115588
5.114553815	0.379328911	0.081282827
5.116251329	0.37943049	0.081444371
5.117948843	0.379534377	0.081600407
5.119646357	0.379640343	0.081751191
5.12134387	0.379748424	0.081896965
5.123041384	0.379858818	0.082037894
5.124738898	0.379971616	0.082174068
5.126436412	0.380086435	0.082305594
5.128133926	0.380202299	0.082432721
5.129831439	0.380317878	0.082555936
5.131528953	0.380431894	0.082675997
5.133226467	0.380543388	0.082793904
5.134923981	0.380651818	0.08291079
5.136621494	0.380757037	0.083027748
5.138319008	0.380859196	0.083145704
5.140016522	0.380958493	0.083265367
5.141714036	0.381054906	0.083387255
5.14341155	0.381148083	0.083511766
5.145109063	0.381237435	0.083639258
5.146806577	0.38132231	0.083770119
5.148504091	0.381402126	0.083904808
5.150201605	0.381476493	0.084043824
5.151899118	0.381545275	0.084187633
5.153596632	0.381608582	0.084336613
5.155294146	0.381666711	0.084491015
5.15699166	0.381720062	0.084650942
5.158689174	0.381769072	0.084816353
5.160386687	0.381814145	0.084987091
5.162084201	0.38185562	0.085162923
5.163781715	0.381893761	0.085343583
5.165479229	0.381928781	0.085528783
5.167176743	0.381960854	0.08571822
5.168874256	0.381990142	0.085911573
5.17057177	0.382016804	0.086108512
5.172269284	0.382041011	0.086308688
5.173966798	0.382062943	0.086511742
5.175664311	0.382082788	0.086717308
5.177361825	0.382100729	0.086925024
5.179059339	0.382116948	0.087134541
5.180756853	0.382131614	0.087345529
5.182454367	0.382144889	0.087557688
5.18415188	0.382156917	0.087770755
5.185849394	0.382167814	0.087984497
5.187546908	0.382177657	0.088198714
5.189244422	0.382186481	0.088413243
5.190941935	0.382194285	0.088627952
5.192639449	0.382201038	0.088842745
5.194336963	0.382206702	0.089057562
5.196034477	0.382211268	0.089272381
5.197731991	0.382214779	0.089487224
5.199429504	0.382217328	0.08970215
5.201127018	0.382219044	0.089917256
5.202824532	0.382220076	0.090132677
5.204522046	0.382220568	0.09034857
5.20621956	0.382220632	0.090565105
5.207917073	0.382220333	0.090782446
5.209614587	0.382219697	0.09100075
5.211312101	0.382218737	0.091220161
5.213009615	0.382217466	0.091440805
5.214707128	0.382215919	0.091662795
5.216404642	0.382214162	0.091886232
5.218102156	0.382212295	0.092111213
5.21979967	0.382210443	0.09233782
5.221497184	0.382208733	0.092566115
5.223194697	0.382207282	0.092796135
5.224892211	0.382206184	0.093027888
5.226589725	0.382205485	0.093261346
5.228287239	0.382205192	0.093496448
5.229984752	0.382205338	0.093733121
5.231682266	0.382206098	0.093971296
5.23337978	0.382207839	0.094210916
5.235077294	0.382211092	0.094451948
5.236774808	0.382216483	0.094694389
5.238472321	0.382224638	0.094938256
5.240169835	0.382236027	0.095183533
5.241867349	0.382250844	0.095430135
5.243564863	0.382268997	0.095677905
5.245262377	0.382290145	0.095926608
5.24695989	0.382313764	0.096175935
5.248657404	0.38233925	0.096425528
5.250354918	0.382366109	0.096675048
5.252052432	0.382394106	0.096924215
5.253749945	0.38242328	0.097172817
5.255447459	0.382453889	0.097420699
5.257144973	0.382486306	0.097667763
5.258842487	0.382520915	0.097913937
5.260540001	0.382557977	0.098159149
5.262237514	0.382597558	0.098403315
5.263935028	0.382639515	0.098646336
5.265632542	0.382683524	0.098888091
5.267330056	0.382729134	0.099128423
5.26902757	0.382775854	0.099367163
5.270725083	0.382823253	0.099604146
5.272422597	0.382871022	0.099839227
5.274120111	0.382918975	0.100072289
5.275817625	0.38296699	0.100303251
5.277515138	0.383014962	0.100532084
5.279212652	0.383062765	0.100758828
5.280910166	0.383110242	0.100983606
5.28260768	0.383157223	0.101206648
5.284305194	0.383203546	0.101428285
5.286002707	0.38324902	0.101648898
5.287700221	0.383293398	0.101868883
5.289397735	0.383336382	0.102088624
5.291095249	0.383377642	0.102308471
5.292792762	0.383416864	0.102528752
5.294490276	0.38345379	0.102749776
5.29618779	0.383488239	0.10297184
5.297885304	0.383520101	0.103195223
5.299582818	0.383549353	0.103420199
5.301280331	0.383576116	0.103647091
5.302977845	0.383600732	0.103876344
5.304675359	0.383623724	0.104108529
5.306372873	0.383645671	0.104344273
5.308070387	0.383667099	0.10458419
5.3097679	0.383688355	0.104828795
5.311465414	0.383709505	0.105078415
5.313162928	0.383730348	0.105333177
5.314860442	0.383750587	0.105593084
5.316557955	0.383770044	0.105858142
5.318255469	0.383788756	0.106128425
